<svg xmlns="http://www.w3.org/2000/svg" viewBox="0 0 240 200" width="240" height="200">
  <g transform-origin="120 190">
    <animateTransform attributeName="transform" type="scale" values="1 1;1.02 0.98;1 1" dur="3s" additive="sum" repeatCount="indefinite"/>
    <g>
    <ellipse cx="120" cy="190" rx="70" ry="6" fill="#00000018"/>
    <ellipse cx="120" cy="145" rx="70" ry="48" fill="#E9A96B"/>
    <ellipse cx="120" cy="155" rx="42" ry="32" fill="#FBE3C8"/>
    <circle cx="80" cy="62" r="16" fill="#E9A96B"/><circle cx="80" cy="62" r="9" fill="#F5B8B0"/>
    <circle cx="160" cy="62" r="16" fill="#E9A96B"/><circle cx="160" cy="62" r="9" fill="#F5B8B0"/>
    <ellipse cx="120" cy="96" rx="52" ry="44" fill="#E9A96B"/>
    <ellipse cx="82" cy="112" rx="27.0" ry="22.5" fill="#F4C59A"></ellipse>
    <ellipse cx="158" cy="112" rx="27.0" ry="22.5" fill="#F4C59A"></ellipse>
    <circle cx="80" cy="110" r="6" fill="#F29E9E" opacity="0.55"/>
    <circle cx="160" cy="110" r="6" fill="#F29E9E" opacity="0.55"/>
    <ellipse cx="120" cy="110" rx="26" ry="20" fill="#FBE3C8"/>
    <path d="M96 93 Q102 98 108 93" stroke="#2B2118" stroke-width="2.5" fill="none" stroke-linecap="round"/><path d="M132 93 Q138 98 144 93" stroke="#2B2118" stroke-width="2.5" fill="none" stroke-linecap="round"/>
    <ellipse cx="120" cy="104" rx="4" ry="3" fill="#D9707A"/>
    <path d="M113 112 Q120 118 127 112" stroke="#7A3B3B" stroke-width="2" fill="none" stroke-linecap="round"/>
    <ellipse cx="106" cy="132" rx="7" ry="5" fill="#F4C59A"/>
    <ellipse cx="134" cy="132" rx="7" ry="5" fill="#F4C59A"/>
    <ellipse cx="96" cy="188" rx="12" ry="5" fill="#F4C59A"/>
    <ellipse cx="144" cy="188" rx="12" ry="5" fill="#F4C59A"/>
    
    </g>
  </g>
  
  
      <text x="172" y="60" font-family="sans-serif" font-size="12" fill="#9A8C7E" opacity="0">z
        <animate attributeName="y" values="64;30" dur="3s" begin="0s" repeatCount="indefinite"/>
        <animate attributeName="opacity" values="0;1;0" dur="3s" begin="0s" repeatCount="indefinite"/>
      </text>
      <text x="184" y="60" font-family="sans-serif" font-size="16" fill="#9A8C7E" opacity="0">z
        <animate attributeName="y" values="64;30" dur="3s" begin="1s" repeatCount="indefinite"/>
        <animate attributeName="opacity" values="0;1;0" dur="3s" begin="1s" repeatCount="indefinite"/>
      </text>
      <text x="196" y="60" font-family="sans-serif" font-size="20" fill="#9A8C7E" opacity="0">z
        <animate attributeName="y" values="64;30" dur="3s" begin="2s" repeatCount="indefinite"/>
        <animate attributeName="opacity" values="0;1;0" dur="3s" begin="2s" repeatCount="indefinite"/>
      </text></svg>